<?xml version="1.0" encoding="UTF-8"?>
<svg width="200px" height="150px" viewBox="0 0 200 150" version="1.1" xmlns="http://www.w3.org/2000/svg" xmlns:xlink="http://www.w3.org/1999/xlink">
    <title>Bonus Offer</title>
    <g id="Bonus-Offer" stroke="none" stroke-width="1" fill="none" fill-rule="evenodd">
        <circle id="Background" fill="#F3E5F5" cx="100" cy="75" r="70"></circle>
        <g id="Gift-Box" transform="translate(60.000000, 35.000000)">
            <rect id="Box-Bottom" fill="#9C27B0" x="10" y="40" width="60" height="40" rx="5"></rect>
            <rect id="Box-Top" fill="#BA68C8" x="0" y="30" width="80" height="20" rx="5"></rect>
            <rect id="Ribbon-Vertical" fill="#7B1FA2" x="35" y="0" width="10" height="80"></rect>
            <rect id="Ribbon-Horizontal" fill="#7B1FA2" x="0" y="35" width="80" height="10"></rect>
            <circle id="Decoration-1" fill="#E1BEE7" cx="15" cy="45" r="5"></circle>
            <circle id="Decoration-2" fill="#E1BEE7" cx="65" cy="45" r="5"></circle>
            <circle id="Decoration-3" fill="#E1BEE7" cx="40" cy="65" r="5"></circle>
        </g>
        <g id="Jade-Icon" transform="translate(120.000000, 50.000000)">
            <circle id="Jade-Background" fill="#4CAF50" cx="20" cy="20" r="20"></circle>
            <text id="500" font-family="Arial-BoldMT, Arial" font-size="14" font-weight="bold" fill="#FFFFFF">
                <tspan x="7" y="25">500</tspan>
            </text>
            <path d="M20,0 L25,5 L20,10 L15,5 L20,0 Z" id="Jade-Top" fill="#81C784"></path>
            <path d="M30,10 L35,15 L30,20 L25,15 L30,10 Z" id="Jade-Right" fill="#81C784"></path>
            <path d="M20,30 L25,35 L20,40 L15,35 L20,30 Z" id="Jade-Bottom" fill="#81C784"></path>
            <path d="M10,10 L15,15 L10,20 L5,15 L10,10 Z" id="Jade-Left" fill="#81C784"></path>
        </g>
        <g id="Sparkles" transform="translate(50.000000, 25.000000)">
            <path d="M10,0 L12,5 L15,0 L10,0 Z" id="Sparkle-1" fill="#FFC107"></path>
            <path d="M100,10 L102,15 L105,10 L100,10 Z" id="Sparkle-2" fill="#FFC107"></path>
            <path d="M20,90 L22,95 L25,90 L20,90 Z" id="Sparkle-3" fill="#FFC107"></path>
            <path d="M90,80 L92,85 L95,80 L90,80 Z" id="Sparkle-4" fill="#FFC107"></path>
        </g>
    </g>
</svg>
