<?xml version="1.0" encoding="UTF-8"?>
<svg width="200px" height="150px" viewBox="0 0 200 150" version="1.1" xmlns="http://www.w3.org/2000/svg" xmlns:xlink="http://www.w3.org/1999/xlink">
    <title>Extension Offer</title>
    <g id="Extension-Offer" stroke="none" stroke-width="1" fill="none" fill-rule="evenodd">
        <circle id="Background" fill="#E3F2FD" cx="100" cy="75" r="70"></circle>
        <g id="Clock" transform="translate(65.000000, 40.000000)">
            <circle id="Clock-Face" fill="#FFFFFF" cx="35" cy="35" r="35"></circle>
            <circle id="Clock-Border" stroke="#2196F3" stroke-width="4" cx="35" cy="35" r="33"></circle>
            <line x1="35" y1="35" x2="35" y2="15" id="Hour-Hand" stroke="#1976D2" stroke-width="4" stroke-linecap="round"></line>
            <line x1="35" y1="35" x2="50" y2="35" id="Minute-Hand" stroke="#1976D2" stroke-width="3" stroke-linecap="round"></line>
            <circle id="Center-Point" fill="#1976D2" cx="35" cy="35" r="3"></circle>
            <text id="14" font-family="Arial-BoldMT, Arial" font-size="14" font-weight="bold" fill="#1976D2">
                <tspan x="28" y="60">14</tspan>
            </text>
            <text id="DAYS" font-family="Arial-BoldMT, Arial" font-size="10" font-weight="bold" fill="#1976D2">
                <tspan x="25" y="72">DAYS</tspan>
            </text>
        </g>
        <g id="Plus-Sign" transform="translate(130.000000, 40.000000)">
            <circle id="Plus-Background" fill="#2196F3" cx="15" cy="15" r="15"></circle>
            <line x1="15" y1="8" x2="15" y2="22" id="Vertical-Line" stroke="#FFFFFF" stroke-width="3" stroke-linecap="round"></line>
            <line x1="8" y1="15" x2="22" y2="15" id="Horizontal-Line" stroke="#FFFFFF" stroke-width="3" stroke-linecap="round"></line>
        </g>
        <path d="M40,75 C40,75 50,55 70,55 C90,55 100,75 100,75" id="Arc-Left" stroke="#2196F3" stroke-width="3" stroke-linecap="round" stroke-dasharray="5,5"></path>
        <path d="M100,75 C100,75 110,95 130,95 C150,95 160,75 160,75" id="Arc-Right" stroke="#2196F3" stroke-width="3" stroke-linecap="round" stroke-dasharray="5,5"></path>
    </g>
</svg>
