<svg width="250" height="250" viewBox="0 0 250 250" xmlns="http://www.w3.org/2000/svg">
  <!-- Bamboo stalk -->
  <path d="M50,250 L50,100" stroke="#88B04B" stroke-width="8" stroke-linecap="round"/>
  <path d="M50,100 L50,50" stroke="#88B04B" stroke-width="6" stroke-linecap="round"/>
  
  <!-- Bamboo joints -->
  <path d="M40,220 L60,220" stroke="#1A5F4A" stroke-width="3"/>
  <path d="M40,180 L60,180" stroke="#1A5F4A" stroke-width="3"/>
  <path d="M40,140 L60,140" stroke="#1A5F4A" stroke-width="3"/>
  <path d="M40,100 L60,100" stroke="#1A5F4A" stroke-width="3"/>
  <path d="M40,60 L60,60" stroke="#1A5F4A" stroke-width="3"/>
  
  <!-- Bamboo leaves -->
  <path d="M50,60 C80,30 120,40 140,20" stroke="#88B04B" stroke-width="3" fill="none"/>
  <path d="M50,60 C90,50 110,70 130,60" stroke="#88B04B" stroke-width="3" fill="none"/>
  <path d="M50,100 C70,80 100,90 120,70" stroke="#88B04B" stroke-width="3" fill="none"/>
  <path d="M50,100 C80,110 100,90 120,100" stroke="#88B04B" stroke-width="3" fill="none"/>
  <path d="M50,140 C30,120 20,100 10,90" stroke="#88B04B" stroke-width="3" fill="none"/>
  <path d="M50,140 C30,150 20,130 10,140" stroke="#88B04B" stroke-width="3" fill="none"/>
  <path d="M50,180 C70,160 90,170 110,150" stroke="#88B04B" stroke-width="3" fill="none"/>
  <path d="M50,180 C70,190 90,170 110,180" stroke="#88B04B" stroke-width="3" fill="none"/>
  
  <!-- Leaf details -->
  <path d="M140,20 C150,15 160,25 140,30" stroke="#1A5F4A" stroke-width="1" fill="#88B04B" opacity="0.8"/>
  <path d="M130,60 C140,55 150,65 130,70" stroke="#1A5F4A" stroke-width="1" fill="#88B04B" opacity="0.8"/>
  <path d="M120,70 C130,65 140,75 120,80" stroke="#1A5F4A" stroke-width="1" fill="#88B04B" opacity="0.8"/>
  <path d="M120,100 C130,95 140,105 120,110" stroke="#1A5F4A" stroke-width="1" fill="#88B04B" opacity="0.8"/>
  <path d="M10,90 C0,85 -5,95 15,100" stroke="#1A5F4A" stroke-width="1" fill="#88B04B" opacity="0.8"/>
  <path d="M10,140 C0,135 -5,145 15,150" stroke="#1A5F4A" stroke-width="1" fill="#88B04B" opacity="0.8"/>
  <path d="M110,150 C120,145 130,155 110,160" stroke="#1A5F4A" stroke-width="1" fill="#88B04B" opacity="0.8"/>
  <path d="M110,180 C120,175 130,185 110,190" stroke="#1A5F4A" stroke-width="1" fill="#88B04B" opacity="0.8"/>
</svg>
