<svg width="200" height="200" viewBox="0 0 200 200" xmlns="http://www.w3.org/2000/svg">
  <!-- Bamboo pattern background -->
  <defs>
    <pattern id="bamboo-pattern" x="0" y="0" width="50" height="50" patternUnits="userSpaceOnUse">
      <!-- Bamboo stalk -->
      <path d="M25,0 L25,50" stroke="#88B04B" stroke-width="3" opacity="0.1"/>
      <!-- Bamboo joints -->
      <path d="M20,10 L30,10" stroke="#88B04B" stroke-width="2" opacity="0.1"/>
      <path d="M20,25 L30,25" stroke="#88B04B" stroke-width="2" opacity="0.1"/>
      <path d="M20,40 L30,40" stroke="#88B04B" stroke-width="2" opacity="0.1"/>
      <!-- Bamboo leaves -->
      <path d="M25,10 C30,5 35,8 38,12" stroke="#88B04B" stroke-width="1.5" fill="none" opacity="0.1"/>
      <path d="M25,25 C30,20 35,23 38,27" stroke="#88B04B" stroke-width="1.5" fill="none" opacity="0.1"/>
      <path d="M25,40 C30,35 35,38 38,42" stroke="#88B04B" stroke-width="1.5" fill="none" opacity="0.1"/>
      <path d="M25,10 C20,5 15,8 12,12" stroke="#88B04B" stroke-width="1.5" fill="none" opacity="0.1"/>
      <path d="M25,25 C20,20 15,23 12,27" stroke="#88B04B" stroke-width="1.5" fill="none" opacity="0.1"/>
      <path d="M25,40 C20,35 15,38 12,42" stroke="#88B04B" stroke-width="1.5" fill="none" opacity="0.1"/>
    </pattern>
  </defs>
  <rect width="100%" height="100%" fill="url(#bamboo-pattern)" />
</svg>
