<?xml version="1.0" encoding="UTF-8"?>
<svg width="200px" height="100px" viewBox="0 0 200 100" version="1.1" xmlns="http://www.w3.org/2000/svg">
    <title>Chinese Cloud</title>
    <defs>
        <linearGradient x1="0%" y1="0%" x2="100%" y2="100%" id="cloudGradient">
            <stop stop-color="#F7F9F9" offset="0%"></stop>
            <stop stop-color="#E0E0E0" offset="100%"></stop>
        </linearGradient>
    </defs>
    <g stroke="none" stroke-width="1" fill="none" fill-rule="evenodd">
        <path d="M20,60 C10,60 5,50 10,40 C15,30 30,30 35,40 C40,20 60,10 80,20 C100,30 110,20 130,20 C150,20 170,40 160,60 C180,60 190,80 170,90 C150,100 130,90 120,80 C110,90 90,100 70,90 C50,80 40,90 30,80 C20,70 10,60 20,60 Z" 
              fill="url(#cloudGradient)" 
              stroke="#CCCCCC" 
              stroke-width="1">
        </path>
    </g>
</svg>
