<?xml version="1.0" encoding="UTF-8"?>
<svg width="100px" height="100px" viewBox="0 0 100 100" version="1.1" xmlns="http://www.w3.org/2000/svg">
    <title>Gold Pattern</title>
    <defs>
        <linearGradient x1="0%" y1="0%" x2="100%" y2="100%" id="goldGradient">
            <stop stop-color="#D4AF37" offset="0%"></stop>
            <stop stop-color="#FFA000" offset="100%"></stop>
        </linearGradient>
    </defs>
    <g stroke="none" stroke-width="1" fill="none" fill-rule="evenodd">
        <g transform="translate(5, 5)" fill="url(#goldGradient)">
            <!-- Traditional Chinese Pattern -->
            <path d="M0,0 L10,0 L10,10 L0,10 Z"></path>
            <path d="M20,0 L30,0 L30,10 L20,10 Z"></path>
            <path d="M40,0 L50,0 L50,10 L40,10 Z"></path>
            <path d="M60,0 L70,0 L70,10 L60,10 Z"></path>
            <path d="M80,0 L90,0 L90,10 L80,10 Z"></path>
            
            <path d="M10,10 L20,10 L20,20 L10,20 Z"></path>
            <path d="M30,10 L40,10 L40,20 L30,20 Z"></path>
            <path d="M50,10 L60,10 L60,20 L50,20 Z"></path>
            <path d="M70,10 L80,10 L80,20 L70,20 Z"></path>
            
            <path d="M0,20 L10,20 L10,30 L0,30 Z"></path>
            <path d="M20,20 L30,20 L30,30 L20,30 Z"></path>
            <path d="M40,20 L50,20 L50,30 L40,30 Z"></path>
            <path d="M60,20 L70,20 L70,30 L60,30 Z"></path>
            <path d="M80,20 L90,20 L90,30 L80,30 Z"></path>
            
            <path d="M10,30 L20,30 L20,40 L10,40 Z"></path>
            <path d="M30,30 L40,30 L40,40 L30,40 Z"></path>
            <path d="M50,30 L60,30 L60,40 L50,40 Z"></path>
            <path d="M70,30 L80,30 L80,40 L70,40 Z"></path>
            
            <path d="M0,40 L10,40 L10,50 L0,50 Z"></path>
            <path d="M20,40 L30,40 L30,50 L20,50 Z"></path>
            <path d="M40,40 L50,40 L50,50 L40,50 Z"></path>
            <path d="M60,40 L70,40 L70,50 L60,50 Z"></path>
            <path d="M80,40 L90,40 L90,50 L80,50 Z"></path>
            
            <path d="M10,50 L20,50 L20,60 L10,60 Z"></path>
            <path d="M30,50 L40,50 L40,60 L30,60 Z"></path>
            <path d="M50,50 L60,50 L60,60 L50,60 Z"></path>
            <path d="M70,50 L80,50 L80,60 L70,60 Z"></path>
            
            <path d="M0,60 L10,60 L10,70 L0,70 Z"></path>
            <path d="M20,60 L30,60 L30,70 L20,70 Z"></path>
            <path d="M40,60 L50,60 L50,70 L40,70 Z"></path>
            <path d="M60,60 L70,60 L70,70 L60,70 Z"></path>
            <path d="M80,60 L90,60 L90,70 L80,70 Z"></path>
            
            <path d="M10,70 L20,70 L20,80 L10,80 Z"></path>
            <path d="M30,70 L40,70 L40,80 L30,80 Z"></path>
            <path d="M50,70 L60,70 L60,80 L50,80 Z"></path>
            <path d="M70,70 L80,70 L80,80 L70,80 Z"></path>
            
            <path d="M0,80 L10,80 L10,90 L0,90 Z"></path>
            <path d="M20,80 L30,80 L30,90 L20,90 Z"></path>
            <path d="M40,80 L50,80 L50,90 L40,90 Z"></path>
            <path d="M60,80 L70,80 L70,90 L60,90 Z"></path>
            <path d="M80,80 L90,80 L90,90 L80,90 Z"></path>
        </g>
    </g>
</svg>
