<?xml version="1.0" encoding="UTF-8"?>
<svg width="80px" height="80px" viewBox="0 0 80 80" version="1.1" xmlns="http://www.w3.org/2000/svg">
    <title>Gold Corner</title>
    <defs>
        <linearGradient x1="0%" y1="0%" x2="100%" y2="100%" id="goldGradient">
            <stop stop-color="#D4AF37" offset="0%"></stop>
            <stop stop-color="#FFA000" offset="100%"></stop>
        </linearGradient>
    </defs>
    <g stroke="none" stroke-width="1" fill="none" fill-rule="evenodd">
        <g transform="translate(5, 5)" fill="url(#goldGradient)">
            <!-- Elegant Corner Design -->
            <path d="M0,0 C20,0 40,0 60,0 C60,5 60,10 55,15 C50,20 45,20 40,20 C40,25 40,30 35,35 C30,40 25,40 20,40 C15,40 10,40 5,35 C0,30 0,25 0,20 C0,15 0,5 0,0 Z"></path>
            <circle cx="10" cy="10" r="3"></circle>
            <circle cx="30" cy="10" r="3"></circle>
            <circle cx="50" cy="10" r="3"></circle>
            <circle cx="10" cy="30" r="3"></circle>
            <circle cx="30" cy="30" r="3"></circle>
        </g>
    </g>
</svg>
