<svg width="200" height="200" viewBox="0 0 200 200" xmlns="http://www.w3.org/2000/svg">
  <!-- 熊猫头部 - 疲惫状态 -->
  
  <!-- 头部轮廓 -->
  <circle cx="100" cy="100" r="90" fill="white" stroke="black" stroke-width="2"/>
  
  <!-- 左耳朵 -->
  <ellipse cx="40" cy="40" rx="25" ry="25" fill="black" transform="rotate(-15 40 40)"/>
  
  <!-- 右耳朵 -->
  <ellipse cx="160" cy="40" rx="25" ry="25" fill="black" transform="rotate(15 160 40)"/>
  
  <!-- 左眼眶 -->
  <ellipse cx="70" cy="85" rx="25" ry="23" fill="black" transform="rotate(-10 70 85)"/>
  
  <!-- 右眼眶 -->
  <ellipse cx="130" cy="85" rx="25" ry="23" fill="black" transform="rotate(10 130 85)"/>
  
  <!-- 左眼 - 疲惫 -->
  <ellipse cx="70" cy="85" rx="8" ry="5" fill="white" transform="rotate(-10 70 85)"/>
  <path d="M62,85 L78,85" stroke="black" stroke-width="1.5" fill="none"/>
  
  <!-- 右眼 - 疲惫 -->
  <ellipse cx="130" cy="85" rx="8" ry="5" fill="white" transform="rotate(10 130 85)"/>
  <path d="M122,85 L138,85" stroke="black" stroke-width="1.5" fill="none"/>
  
  <!-- 黑眼圈 -->
  <path d="M50,95 Q70,105 90,95" stroke="#666" stroke-width="2" fill="none" opacity="0.5"/>
  <path d="M110,95 Q130,105 150,95" stroke="#666" stroke-width="2" fill="none" opacity="0.5"/>
  
  <!-- 鼻子 -->
  <ellipse cx="100" cy="110" rx="15" ry="10" fill="black"/>
  
  <!-- 嘴巴 - 疲惫 -->
  <path d="M85,125 Q100,115 115,125" stroke="black" stroke-width="2" fill="none"/>
  
  <!-- 汗滴 -->
  <path d="M40,60 L35,70" stroke="#89CFF0" stroke-width="2" fill="none"/>
  <circle cx="33" cy="73" r="3" fill="#89CFF0"/>
</svg>
