<?xml version="1.0" encoding="UTF-8"?>
<svg width="200px" height="200px" viewBox="0 0 200 200" version="1.1" xmlns="http://www.w3.org/2000/svg">
    <title>VIP Background Pattern</title>
    <g stroke="none" stroke-width="1" fill="none" fill-rule="evenodd" opacity="0.05">
        <g transform="translate(0, 0)" fill="#D4AF37">
            <!-- Bamboo Pattern -->
            <path d="M20,20 C25,15 30,15 35,20 C40,25 40,30 35,35 C30,40 25,40 20,35 C15,30 15,25 20,20 Z"></path>
            <path d="M60,20 C65,15 70,15 75,20 C80,25 80,30 75,35 C70,40 65,40 60,35 C55,30 55,25 60,20 Z"></path>
            <path d="M100,20 C105,15 110,15 115,20 C120,25 120,30 115,35 C110,40 105,40 100,35 C95,30 95,25 100,20 Z"></path>
            <path d="M140,20 C145,15 150,15 155,20 C160,25 160,30 155,35 C150,40 145,40 140,35 C135,30 135,25 140,20 Z"></path>
            <path d="M180,20 C185,15 190,15 195,20 C200,25 200,30 195,35 C190,40 185,40 180,35 C175,30 175,25 180,20 Z"></path>
            
            <path d="M20,60 C25,55 30,55 35,60 C40,65 40,70 35,75 C30,80 25,80 20,75 C15,70 15,65 20,60 Z"></path>
            <path d="M60,60 C65,55 70,55 75,60 C80,65 80,70 75,75 C70,80 65,80 60,75 C55,70 55,65 60,60 Z"></path>
            <path d="M100,60 C105,55 110,55 115,60 C120,65 120,70 115,75 C110,80 105,80 100,75 C95,70 95,65 100,60 Z"></path>
            <path d="M140,60 C145,55 150,55 155,60 C160,65 160,70 155,75 C150,80 145,80 140,75 C135,70 135,65 140,60 Z"></path>
            <path d="M180,60 C185,55 190,55 195,60 C200,65 200,70 195,75 C190,80 185,80 180,75 C175,70 175,65 180,60 Z"></path>
            
            <path d="M20,100 C25,95 30,95 35,100 C40,105 40,110 35,115 C30,120 25,120 20,115 C15,110 15,105 20,100 Z"></path>
            <path d="M60,100 C65,95 70,95 75,100 C80,105 80,110 75,115 C70,120 65,120 60,115 C55,110 55,105 60,100 Z"></path>
            <path d="M100,100 C105,95 110,95 115,100 C120,105 120,110 115,115 C110,120 105,120 100,115 C95,110 95,105 100,100 Z"></path>
            <path d="M140,100 C145,95 150,95 155,100 C160,105 160,110 155,115 C150,120 145,120 140,115 C135,110 135,105 140,100 Z"></path>
            <path d="M180,100 C185,95 190,95 195,100 C200,105 200,110 195,115 C190,120 185,120 180,115 C175,110 175,105 180,100 Z"></path>
            
            <path d="M20,140 C25,135 30,135 35,140 C40,145 40,150 35,155 C30,160 25,160 20,155 C15,150 15,145 20,140 Z"></path>
            <path d="M60,140 C65,135 70,135 75,140 C80,145 80,150 75,155 C70,160 65,160 60,155 C55,150 55,145 60,140 Z"></path>
            <path d="M100,140 C105,135 110,135 115,140 C120,145 120,150 115,155 C110,160 105,160 100,155 C95,150 95,145 100,140 Z"></path>
            <path d="M140,140 C145,135 150,135 155,140 C160,145 160,150 155,155 C150,160 145,160 140,155 C135,150 135,145 140,140 Z"></path>
            <path d="M180,140 C185,135 190,135 195,140 C200,145 200,150 195,155 C190,160 185,160 180,155 C175,150 175,145 180,140 Z"></path>
            
            <path d="M20,180 C25,175 30,175 35,180 C40,185 40,190 35,195 C30,200 25,200 20,195 C15,190 15,185 20,180 Z"></path>
            <path d="M60,180 C65,175 70,175 75,180 C80,185 80,190 75,195 C70,200 65,200 60,195 C55,190 55,185 60,180 Z"></path>
            <path d="M100,180 C105,175 110,175 115,180 C120,185 120,190 115,195 C110,200 105,200 100,195 C95,190 95,185 100,180 Z"></path>
            <path d="M140,180 C145,175 150,175 155,180 C160,185 160,190 155,195 C150,200 145,200 140,195 C135,190 135,185 140,180 Z"></path>
            <path d="M180,180 C185,175 190,175 195,180 C200,185 200,190 195,195 C190,200 185,200 180,195 C175,190 175,185 180,180 Z"></path>
        </g>
    </g>
</svg>
