<?xml version="1.0" encoding="UTF-8"?>
<svg width="100px" height="100px" viewBox="0 0 100 100" version="1.1" xmlns="http://www.w3.org/2000/svg">
    <title>Coin</title>
    <defs>
        <linearGradient x1="0%" y1="0%" x2="100%" y2="100%" id="coinGradient">
            <stop stop-color="#FFD700" offset="0%"></stop>
            <stop stop-color="#D4AF37" offset="100%"></stop>
        </linearGradient>
        <filter id="coinGlow" x="-50%" y="-50%" width="200%" height="200%">
            <feGaussianBlur stdDeviation="2" result="blur" />
            <feComposite in="SourceGraphic" in2="blur" operator="over" />
        </filter>
    </defs>
    <g stroke="none" stroke-width="1" fill="none" fill-rule="evenodd">
        <!-- Coin base -->
        <circle cx="50" cy="50" r="40" fill="url(#coinGradient)" filter="url(#coinGlow)"></circle>
        
        <!-- Bamboo symbol -->
        <path d="M45,30 C45,30 40,35 40,40 C40,45 45,50 45,50 C45,50 50,45 50,40 C50,35 45,30 45,30 Z" fill="#1A5F4A" fill-opacity="0.8"></path>
        <path d="M55,30 C55,30 50,35 50,40 C50,45 55,50 55,50 C55,50 60,45 60,40 C60,35 55,30 55,30 Z" fill="#1A5F4A" fill-opacity="0.8"></path>
        <path d="M50,40 C50,40 45,45 45,50 C45,55 50,60 50,60 C50,60 55,55 55,50 C55,45 50,40 50,40 Z" fill="#1A5F4A" fill-opacity="0.8"></path>
        
        <!-- Coin edge -->
        <circle cx="50" cy="50" r="40" stroke="#FFFFFF" stroke-width="2" stroke-opacity="0.7"></circle>
        
        <!-- Coin shine -->
        <path d="M30,40 Q40,30 50,35 Q60,40 70,35" stroke="#FFFFFF" stroke-width="2" stroke-opacity="0.8" stroke-linecap="round"></path>
    </g>
</svg>
