<?xml version="1.0" encoding="UTF-8"?>
<svg width="100px" height="100px" viewBox="0 0 100 100" version="1.1" xmlns="http://www.w3.org/2000/svg">
    <title>Potion - Common</title>
    <defs>
        <linearGradient x1="0%" y1="0%" x2="100%" y2="100%" id="potionGradient">
            <stop stop-color="#42A5F5" offset="0%"></stop>
            <stop stop-color="#1976D2" offset="100%"></stop>
        </linearGradient>
        <filter id="potionGlow" x="-50%" y="-50%" width="200%" height="200%">
            <feGaussianBlur stdDeviation="2" result="blur" />
            <feComposite in="SourceGraphic" in2="blur" operator="over" />
        </filter>
    </defs>
    <g stroke="none" stroke-width="1" fill="none" fill-rule="evenodd">
        <!-- Background circle -->
        <circle cx="50" cy="50" r="40" fill="#F5F5DC" filter="url(#potionGlow)"></circle>
        
        <!-- Potion bottle -->
        <path d="M45,30 L55,30 L55,40 C60,45 65,55 60,65 C55,70 45,70 40,65 C35,55 40,45 45,40 L45,30 Z" fill="#FFFFFF" stroke="#1976D2" stroke-width="2"></path>
        
        <!-- Potion liquid -->
        <path d="M45,45 C40,50 35,60 40,65 C45,70 55,70 60,65 C65,60 60,50 55,45 L45,45 Z" fill="url(#potionGradient)"></path>
        
        <!-- Bottle cap -->
        <rect x="45" y="27" width="10" height="5" rx="2" fill="#1976D2"></rect>
        
        <!-- Bubbles -->
        <circle cx="45" cy="55" r="2" fill="#FFFFFF" fill-opacity="0.7"></circle>
        <circle cx="55" cy="60" r="1.5" fill="#FFFFFF" fill-opacity="0.7"></circle>
        <circle cx="50" cy="50" r="1" fill="#FFFFFF" fill-opacity="0.7"></circle>
        
        <!-- Border -->
        <circle cx="50" cy="50" r="40" stroke="#1976D2" stroke-width="2" stroke-opacity="0.7"></circle>
    </g>
</svg>
