<?xml version="1.0" encoding="UTF-8"?>
<svg width="100px" height="100px" viewBox="0 0 100 100" version="1.1" xmlns="http://www.w3.org/2000/svg">
    <title>Scroll - Common</title>
    <defs>
        <linearGradient x1="0%" y1="0%" x2="100%" y2="100%" id="scrollGradient">
            <stop stop-color="#D4AF37" offset="0%"></stop>
            <stop stop-color="#FFA000" offset="100%"></stop>
        </linearGradient>
        <filter id="scrollGlow" x="-50%" y="-50%" width="200%" height="200%">
            <feGaussianBlur stdDeviation="2" result="blur" />
            <feComposite in="SourceGraphic" in2="blur" operator="over" />
        </filter>
    </defs>
    <g stroke="none" stroke-width="1" fill="none" fill-rule="evenodd">
        <!-- Background circle -->
        <circle cx="50" cy="50" r="40" fill="#F5F5DC" filter="url(#scrollGlow)"></circle>
        
        <!-- Scroll -->
        <rect x="30" y="35" width="40" height="30" rx="2" fill="#F8F0D8"></rect>
        <path d="M30,35 C25,35 25,40 25,45 C25,50 25,55 30,55" stroke="#D4AF37" stroke-width="2" stroke-linecap="round"></path>
        <path d="M70,35 C75,35 75,40 75,45 C75,50 75,55 70,55" stroke="#D4AF37" stroke-width="2" stroke-linecap="round"></path>
        
        <!-- Scroll lines -->
        <path d="M35,42 L65,42" stroke="#D4AF37" stroke-width="1" stroke-opacity="0.5"></path>
        <path d="M35,47 L65,47" stroke="#D4AF37" stroke-width="1" stroke-opacity="0.5"></path>
        <path d="M35,52 L65,52" stroke="#D4AF37" stroke-width="1" stroke-opacity="0.5"></path>
        
        <!-- Border -->
        <circle cx="50" cy="50" r="40" stroke="#D4AF37" stroke-width="2" stroke-opacity="0.7"></circle>
    </g>
</svg>
