<svg width="800" height="400" viewBox="0 0 800 400" xmlns="http://www.w3.org/2000/svg">
  <!-- 竹林小径背景 -->
  <defs>
    <linearGradient id="skyGradient" x1="0%" y1="0%" x2="0%" y2="100%">
      <stop offset="0%" stop-color="#87CEEB" />
      <stop offset="100%" stop-color="#E0F7FA" />
    </linearGradient>
    <linearGradient id="groundGradient" x1="0%" y1="0%" x2="0%" y2="100%">
      <stop offset="0%" stop-color="#A8C66C" />
      <stop offset="100%" stop-color="#88B04B" />
    </linearGradient>
    <linearGradient id="pathGradient" x1="0%" y1="0%" x2="0%" y2="100%">
      <stop offset="0%" stop-color="#D7CCC8" />
      <stop offset="100%" stop-color="#BCAAA4" />
    </linearGradient>
    <linearGradient id="bambooGradient" x1="0%" y1="0%" x2="100%" y2="0%">
      <stop offset="0%" stop-color="#7CB342" />
      <stop offset="100%" stop-color="#558B2F" />
    </linearGradient>
  </defs>
  
  <!-- 天空 -->
  <rect x="0" y="0" width="800" height="200" fill="url(#skyGradient)" />
  
  <!-- 远处的山 -->
  <path d="M0,200 Q200,100 400,180 Q600,100 800,200" fill="#A5D6A7" />
  
  <!-- 地面 -->
  <rect x="0" y="200" width="800" height="200" fill="url(#groundGradient)" />
  
  <!-- 小径 -->
  <path d="M300,400 Q400,350 500,400" fill="url(#pathGradient)" />
  <path d="M320,400 Q400,360 480,400" fill="#E0E0E0" />
  
  <!-- 竹子群 - 左侧 -->
  <g transform="translate(100, 150)">
    <!-- 竹竿 -->
    <rect x="0" y="0" width="10" height="250" fill="url(#bambooGradient)" />
    <rect x="20" y="-30" width="8" height="280" fill="url(#bambooGradient)" />
    <rect x="40" y="-10" width="12" height="260" fill="url(#bambooGradient)" />
    
    <!-- 竹节 -->
    <rect x="0" y="50" width="10" height="2" fill="#33691E" />
    <rect x="0" y="100" width="10" height="2" fill="#33691E" />
    <rect x="0" y="150" width="10" height="2" fill="#33691E" />
    <rect x="0" y="200" width="10" height="2" fill="#33691E" />
    
    <rect x="20" y="40" width="8" height="2" fill="#33691E" />
    <rect x="20" y="90" width="8" height="2" fill="#33691E" />
    <rect x="20" y="140" width="8" height="2" fill="#33691E" />
    <rect x="20" y="190" width="8" height="2" fill="#33691E" />
    
    <rect x="40" y="60" width="12" height="2" fill="#33691E" />
    <rect x="40" y="110" width="12" height="2" fill="#33691E" />
    <rect x="40" y="160" width="12" height="2" fill="#33691E" />
    <rect x="40" y="210" width="12" height="2" fill="#33691E" />
    
    <!-- 竹叶 -->
    <path d="M5,0 Q15,-20 25,-10 Q15,0 5,0" fill="#A5D6A7" />
    <path d="M5,10 Q25,0 30,15 Q15,20 5,10" fill="#A5D6A7" />
    <path d="M25,-30 Q40,-40 45,-25 Q35,-20 25,-30" fill="#A5D6A7" />
    <path d="M45,-10 Q60,-25 70,-15 Q55,0 45,-10" fill="#A5D6A7" />
  </g>
  
  <!-- 竹子群 - 右侧 -->
  <g transform="translate(600, 170)">
    <!-- 竹竿 -->
    <rect x="0" y="0" width="10" height="230" fill="url(#bambooGradient)" />
    <rect x="20" y="-20" width="8" height="250" fill="url(#bambooGradient)" />
    <rect x="40" y="10" width="12" height="220" fill="url(#bambooGradient)" />
    
    <!-- 竹节 -->
    <rect x="0" y="50" width="10" height="2" fill="#33691E" />
    <rect x="0" y="100" width="10" height="2" fill="#33691E" />
    <rect x="0" y="150" width="10" height="2" fill="#33691E" />
    <rect x="0" y="200" width="10" height="2" fill="#33691E" />
    
    <rect x="20" y="40" width="8" height="2" fill="#33691E" />
    <rect x="20" y="90" width="8" height="2" fill="#33691E" />
    <rect x="20" y="140" width="8" height="2" fill="#33691E" />
    <rect x="20" y="190" width="8" height="2" fill="#33691E" />
    
    <rect x="40" y="60" width="12" height="2" fill="#33691E" />
    <rect x="40" y="110" width="12" height="2" fill="#33691E" />
    <rect x="40" y="160" width="12" height="2" fill="#33691E" />
    <rect x="40" y="210" width="12" height="2" fill="#33691E" />
    
    <!-- 竹叶 -->
    <path d="M5,0 Q15,-20 25,-10 Q15,0 5,0" fill="#A5D6A7" />
    <path d="M5,10 Q25,0 30,15 Q15,20 5,10" fill="#A5D6A7" />
    <path d="M25,-20 Q40,-30 45,-15 Q35,-10 25,-20" fill="#A5D6A7" />
    <path d="M45,10 Q60,-5 70,5 Q55,15 45,10" fill="#A5D6A7" />
  </g>
  
  <!-- 竹子群 - 中间远处 -->
  <g transform="translate(350, 100) scale(0.7)">
    <!-- 竹竿 -->
    <rect x="0" y="0" width="10" height="300" fill="url(#bambooGradient)" />
    <rect x="20" y="-30" width="8" height="330" fill="url(#bambooGradient)" />
    <rect x="40" y="-10" width="12" height="310" fill="url(#bambooGradient)" />
    
    <!-- 竹节 -->
    <rect x="0" y="50" width="10" height="2" fill="#33691E" />
    <rect x="0" y="100" width="10" height="2" fill="#33691E" />
    <rect x="0" y="150" width="10" height="2" fill="#33691E" />
    <rect x="0" y="200" width="10" height="2" fill="#33691E" />
    <rect x="0" y="250" width="10" height="2" fill="#33691E" />
    
    <rect x="20" y="40" width="8" height="2" fill="#33691E" />
    <rect x="20" y="90" width="8" height="2" fill="#33691E" />
    <rect x="20" y="140" width="8" height="2" fill="#33691E" />
    <rect x="20" y="190" width="8" height="2" fill="#33691E" />
    <rect x="20" y="240" width="8" height="2" fill="#33691E" />
    
    <rect x="40" y="60" width="12" height="2" fill="#33691E" />
    <rect x="40" y="110" width="12" height="2" fill="#33691E" />
    <rect x="40" y="160" width="12" height="2" fill="#33691E" />
    <rect x="40" y="210" width="12" height="2" fill="#33691E" />
    <rect x="40" y="260" width="12" height="2" fill="#33691E" />
    
    <!-- 竹叶 -->
    <path d="M5,0 Q15,-20 25,-10 Q15,0 5,0" fill="#A5D6A7" />
    <path d="M5,10 Q25,0 30,15 Q15,20 5,10" fill="#A5D6A7" />
    <path d="M25,-30 Q40,-40 45,-25 Q35,-20 25,-30" fill="#A5D6A7" />
    <path d="M45,-10 Q60,-25 70,-15 Q55,0 45,-10" fill="#A5D6A7" />
  </g>
  
  <!-- 云朵 -->
  <path d="M100,100 Q120,80 140,90 Q160,70 180,90 Q200,80 220,100 Q200,120 180,110 Q160,130 140,110 Q120,120 100,100" fill="white" opacity="0.8" />
  <path d="M500,70 Q520,50 540,60 Q560,40 580,60 Q600,50 620,70 Q600,90 580,80 Q560,100 540,80 Q520,90 500,70" fill="white" opacity="0.8" />
</svg>
