<?xml version="1.0" encoding="UTF-8"?>
<svg width="24px" height="24px" viewBox="0 0 24 24" version="1.1" xmlns="http://www.w3.org/2000/svg" xmlns:xlink="http://www.w3.org/1999/xlink">
    <title>Bamboo Icon</title>
    <g id="Bamboo-Icon" stroke="none" stroke-width="1" fill="none" fill-rule="evenodd">
        <path d="M12,2 C12.5522847,2 13,2.44771525 13,3 L13,5 C13,5.55228475 12.5522847,6 12,6 C11.4477153,6 11,5.55228475 11,5 L11,3 C11,2.44771525 11.4477153,2 12,2 Z" id="Stem-Top" fill="#4CAF50"></path>
        <rect id="Segment-1" fill="#4CAF50" x="10" y="6" width="4" height="3" rx="1"></rect>
        <rect id="Segment-2" fill="#4CAF50" x="10" y="9" width="4" height="3" rx="1"></rect>
        <rect id="Segment-3" fill="#4CAF50" x="10" y="12" width="4" height="3" rx="1"></rect>
        <rect id="Segment-4" fill="#4CAF50" x="10" y="15" width="4" height="3" rx="1"></rect>
        <path d="M12,18 C12.5522847,18 13,18.4477153 13,19 L13,21 C13,21.5522847 12.5522847,22 12,22 C11.4477153,22 11,21.5522847 11,21 L11,19 C11,18.4477153 11.4477153,18 12,18 Z" id="Stem-Bottom" fill="#4CAF50"></path>
        <path d="M16,7 C16.5522847,7 17,7.44771525 17,8 L17,10 C17,10.5522847 16.5522847,11 16,11 C15.4477153,11 15,10.5522847 15,10 L15,8 C15,7.44771525 15.4477153,7 16,7 Z" id="Leaf-Stem-1" fill="#4CAF50"></path>
        <path d="M8,10 C8.55228475,10 9,10.4477153 9,11 L9,13 C9,13.5522847 8.55228475,14 8,14 C7.44771525,14 7,13.5522847 7,13 L7,11 C7,10.4477153 7.44771525,10 8,10 Z" id="Leaf-Stem-2" fill="#4CAF50"></path>
        <path d="M16,13 C16.5522847,13 17,13.4477153 17,14 L17,16 C17,16.5522847 16.5522847,17 16,17 C15.4477153,17 15,16.5522847 15,16 L15,14 C15,13.4477153 15.4477153,13 16,13 Z" id="Leaf-Stem-3" fill="#4CAF50"></path>
        <path d="M17,8 C18.6568542,8 20,9.34314575 20,11 C20,12.6568542 18.6568542,14 17,14 L17,11 C17,10.4477153 16.5522847,10 16,10 C15.4477153,10 15,9.55228475 15,9 C15,8.44771525 15.4477153,8 16,8 L17,8 Z" id="Leaf-1" fill="#8BC34A"></path>
        <path d="M7,11 C5.34314575,11 4,12.3431458 4,14 C4,15.6568542 5.34314575,17 7,17 L7,14 C7,13.4477153 7.44771525,13 8,13 C8.55228475,13 9,12.5522847 9,12 C9,11.4477153 8.55228475,11 8,11 L7,11 Z" id="Leaf-2" fill="#8BC34A"></path>
        <path d="M17,14 C18.6568542,14 20,15.3431458 20,17 C20,18.6568542 18.6568542,20 17,20 L17,17 C17,16.4477153 16.5522847,16 16,16 C15.4477153,16 15,15.5522847 15,15 C15,14.4477153 15.4477153,14 16,14 L17,14 Z" id="Leaf-3" fill="#8BC34A"></path>
    </g>
</svg>
