<?xml version="1.0" encoding="UTF-8"?>
<svg width="48px" height="48px" viewBox="0 0 48 48" version="1.1" xmlns="http://www.w3.org/2000/svg" xmlns:xlink="http://www.w3.org/1999/xlink">
    <title>Ink Resource - Bamboo</title>
    <defs>
        <!-- 墨水扩散滤镜 -->
        <filter id="ink-diffuse" x="-20%" y="-20%" width="140%" height="140%">
            <feGaussianBlur in="SourceGraphic" stdDeviation="0.5" result="blur"/>
            <feColorMatrix in="blur" type="matrix" values="1 0 0 0 0 0 1 0 0 0 0 0 1 0 0 0 0 0 15 -6" result="contrast"/>
            <feComposite in="contrast" in2="SourceGraphic" operator="in" result="comp"/>
        </filter>
        
        <!-- 墨水纹理滤镜 -->
        <filter id="ink-texture" x="-10%" y="-10%" width="120%" height="120%">
            <feTurbulence type="fractalNoise" baseFrequency="0.8" numOctaves="2" seed="5" result="noise"/>
            <feColorMatrix in="noise" type="matrix" values="1 0 0 0 0 0 1 0 0 0 0 0 1 0 0 0 0 0 0.1 0" result="coloredNoise"/>
            <feComposite operator="in" in="coloredNoise" in2="SourceGraphic" result="texturedInk"/>
        </filter>
        
        <!-- 竹绿渐变 -->
        <linearGradient id="bamboo-gradient" x1="0%" y1="0%" x2="100%" y2="100%">
            <stop offset="0%" style="stop-color:#1A5F4A; stop-opacity:0.9"/>
            <stop offset="70%" style="stop-color:#2E8B57; stop-opacity:0.8"/>
            <stop offset="100%" style="stop-color:#3CB371; stop-opacity:0.7"/>
        </linearGradient>
    </defs>
    
    <g stroke="none" stroke-width="1" fill="none" fill-rule="evenodd">
        <!-- 竹子主干 - 水墨笔触 -->
        <path d="M20,8 C20,8 18,10 18,12 C18,14 20,16 20,16 L20,32 C20,32 18,34 18,36 C18,38 20,40 20,40" 
              stroke="url(#bamboo-gradient)" 
              stroke-width="2" 
              stroke-linecap="round" 
              filter="url(#ink-diffuse)"></path>
        
        <path d="M28,8 C28,8 30,10 30,12 C30,14 28,16 28,16 L28,32 C28,32 30,34 30,36 C30,38 28,40 28,40" 
              stroke="url(#bamboo-gradient)" 
              stroke-width="2" 
              stroke-linecap="round" 
              filter="url(#ink-diffuse)"></path>
        
        <!-- 竹节 - 水墨笔触 -->
        <path d="M16,16 C16,16 20,14 24,14 C28,14 32,16 32,16" 
              stroke="url(#bamboo-gradient)" 
              stroke-width="2" 
              stroke-linecap="round" 
              filter="url(#ink-diffuse)"></path>
        
        <path d="M16,24 C16,24 20,22 24,22 C28,22 32,24 32,24" 
              stroke="url(#bamboo-gradient)" 
              stroke-width="2" 
              stroke-linecap="round" 
              filter="url(#ink-diffuse)"></path>
        
        <path d="M16,32 C16,32 20,30 24,30 C28,30 32,32 32,32" 
              stroke="url(#bamboo-gradient)" 
              stroke-width="2" 
              stroke-linecap="round" 
              filter="url(#ink-diffuse)"></path>
        
        <!-- 竹叶 - 水墨笔触 -->
        <path d="M14,10 C14,10 10,8 8,10 C6,12 8,16 10,16" 
              stroke="url(#bamboo-gradient)" 
              stroke-width="1.5" 
              stroke-linecap="round" 
              filter="url(#ink-diffuse)"></path>
        
        <path d="M34,10 C34,10 38,8 40,10 C42,12 40,16 38,16" 
              stroke="url(#bamboo-gradient)" 
              stroke-width="1.5" 
              stroke-linecap="round" 
              filter="url(#ink-diffuse)"></path>
        
        <!-- 墨水点装饰 -->
        <g filter="url(#ink-texture)">
            <circle cx="24" cy="14" r="0.8" fill="#1A5F4A"></circle>
            <circle cx="24" cy="22" r="0.8" fill="#2E8B57"></circle>
            <circle cx="24" cy="30" r="0.8" fill="#3CB371"></circle>
        </g>
    </g>
</svg>
